<svg width="72" height="72" viewBox="0 0 72 72" fill="none" xmlns="http://www.w3.org/2000/svg">
<path d="M35.5 43C43.4968 43 50 36.721 50 29C50 21.279 43.4968 15 35.5 15C27.5032 15 21 21.279 21 29C21 36.721 27.5032 43 35.5 43ZM35.5 22C39.4984 22 42.75 25.1395 42.75 29C42.75 32.8605 39.4984 36 35.5 36C31.5016 36 28.25 32.8605 28.25 29C28.25 25.1395 31.5016 22 35.5 22Z" fill="#0D5C63"/>
<path d="M33.4338 71.3403C34.0367 71.7693 34.7591 72 35.5 72C36.2409 72 36.9633 71.7693 37.5662 71.3403C38.6492 70.577 64.103 52.2624 63.9997 29.4002C63.9997 13.7411 51.214 1 35.5 1C19.786 1 7.00031 13.7411 7.00031 29.3825C6.897 52.2624 32.3508 70.577 33.4338 71.3403ZM35.5 8.10006C47.2882 8.10006 56.8748 17.6532 56.8748 29.418C56.9496 45.173 41.2427 59.3199 35.5 63.9598C29.7609 59.3163 14.0504 45.1659 14.1252 29.4002C14.1252 17.6532 23.7118 8.10006 35.5 8.10006Z" fill="#0D5C63"/>
</svg>
